<svg id="Layer_2" data-name="Layer 2" xmlns="http://www.w3.org/2000/svg" xmlns:xlink="http://www.w3.org/1999/xlink" viewBox="0 0 182.98 54.79"><defs><style>.cls-1{fill:url(#linear-gradient);}.cls-2{fill:url(#linear-gradient-2);}.cls-3{fill:url(#linear-gradient-3);}.cls-4{fill:url(#linear-gradient-4);}.cls-5{font-size:36px;fill:#231f20;font-family:SavoyeLetPlain, Savoye LET;}</style><linearGradient id="linear-gradient" x1="77.29" y1="199.49" x2="94.13" y2="199.49" gradientUnits="userSpaceOnUse"><stop offset="0" stop-color="#e9c639"/><stop offset="1" stop-color="#977a2d"/></linearGradient><linearGradient id="linear-gradient-2" x1="433.27" y1="193.33" x2="446.03" y2="193.33" gradientTransform="matrix(-1, 0, 0, 1, 509.9, 0)" xlink:href="#linear-gradient"/><linearGradient id="linear-gradient-3" x1="41.29" y1="5.5" x2="42.8" y2="5.5" xlink:href="#linear-gradient"/><linearGradient id="linear-gradient-4" x1="47.47" y1="5.26" x2="49.26" y2="5.26" xlink:href="#linear-gradient"/></defs><path class="cls-1" d="M81.15,209.21c.62.14,6.51,1.4,10.17-2.09,3.93-3.75,4-11.8-1.54-17.68a10.31,10.31,0,0,1-3.89,5c-2.25,1.45-3.5.75-5.49,2.29a8,8,0,0,0-3.06,7,7.44,7.44,0,0,0,1.4,3.51A15.92,15.92,0,0,1,85,198.89a15.53,15.53,0,0,0-3.19,5.74A15.22,15.22,0,0,0,81.15,209.21Z" transform="translate(-37.87 -185.72)"/><path class="cls-2" d="M73.71,200.69c-.47.11-4.94,1.07-7.71-1.58-3-2.84-3.06-8.94,1.16-13.39a8,8,0,0,0,3,3.82c1.71,1.09,2.65.56,4.16,1.73a6.08,6.08,0,0,1,2.32,5.33,5.58,5.58,0,0,1-1.06,2.66,12,12,0,0,0-1.65-3.34,12.22,12.22,0,0,0-3.09-3,11.75,11.75,0,0,1,2.92,7.82Z" transform="translate(-37.87 -185.72)"/><circle class="cls-3" cx="42.04" cy="5.5" r="0.76"/><circle class="cls-4" cx="48.36" cy="5.26" r="0.89"/><text class="cls-5" transform="translate(1.2 33.08)">Tas Meal</text></svg>