<svg id="Layer_1" data-name="Layer 1" xmlns="http://www.w3.org/2000/svg" xmlns:xlink="http://www.w3.org/1999/xlink" viewBox="0 0 146.3 63.69"><defs><style>.cls-1{fill:url(#linear-gradient);}.cls-2{fill:url(#linear-gradient-2);}.cls-3{fill:url(#linear-gradient-3);}.cls-4{fill:url(#linear-gradient-4);}.cls-5{fill:#231f20;}</style><linearGradient id="linear-gradient" x1="267.11" y1="411.28" x2="295.87" y2="411.28" gradientUnits="userSpaceOnUse"><stop offset="0" stop-color="#e9c639"/><stop offset="1" stop-color="#977a2d"/></linearGradient><linearGradient id="linear-gradient-2" x1="243.92" y1="400.76" x2="265.71" y2="400.76" gradientTransform="matrix(-1, 0, 0, 1, 509.9, 0)" xlink:href="#linear-gradient"/><linearGradient id="linear-gradient-3" x1="44.9" y1="9.4" x2="47.48" y2="9.4" xlink:href="#linear-gradient"/><linearGradient id="linear-gradient-4" x1="55.45" y1="8.99" x2="58.5" y2="8.99" xlink:href="#linear-gradient"/></defs><path class="cls-1" d="M273.69,427.86c1.07.25,11.12,2.4,17.37-3.56,6.72-6.41,6.89-20.15-2.62-30.19a17.62,17.62,0,0,1-6.65,8.61c-3.84,2.47-6,1.27-9.36,3.9a13.75,13.75,0,0,0-5.24,12,12.72,12.72,0,0,0,2.4,6,27.17,27.17,0,0,1,10.68-14.39,26.46,26.46,0,0,0-6.58,17.62Z" transform="translate(-225.4 -387.75)"/><path class="cls-2" d="M261,413.32c-.8.19-8.42,1.82-13.16-2.69-5.09-4.86-5.22-15.27,2-22.88a13.39,13.39,0,0,0,5,6.53c2.92,1.87,4.53,1,7.1,3a10.39,10.39,0,0,1,4,9.1,9.57,9.57,0,0,1-1.82,4.54,20.33,20.33,0,0,0-2.81-5.69A20.58,20.58,0,0,0,256,400a20,20,0,0,1,5,13.35Z" transform="translate(-225.4 -387.75)"/><circle class="cls-3" cx="46.19" cy="9.4" r="1.29"/><circle class="cls-4" cx="56.98" cy="8.99" r="1.53"/><path class="cls-5" d="M247.61,430.75a15.12,15.12,0,0,0-1.31-3.41c-.65-1.1-1.06-1.39-3.32-1.39h-4.1v20c0,3.2.33,3.65,4.23,3.89V451H231.18V449.8c3.81-.24,4.14-.65,4.14-3.89V426h-3.73c-2.26,0-2.91.25-3.61,1.48a18.57,18.57,0,0,0-1.35,3.32H225.4c.25-2.5.49-5.09.62-7.38H227c.61,1,1.06.94,2.21.94H245.4a2,2,0,0,0,2.09-.94h1c0,1.92.16,4.88.36,7.25Z" transform="translate(-225.4 -387.75)"/><path class="cls-5" d="M261.3,451.44a3,3,0,0,1-1.93-.78,3.87,3.87,0,0,1-1-1.84c-1.64,1.11-3.65,2.62-4.92,2.62a5,5,0,0,1-5-5c0-2,1.11-3.32,3.36-4.1,2.5-.86,5.58-1.92,6.48-2.66v-.82c0-2.91-1.48-4.59-3.61-4.59a2.37,2.37,0,0,0-1.92.94,8.93,8.93,0,0,0-1.11,2.67,1.15,1.15,0,0,1-1.19.94,2,2,0,0,1-1.8-1.8c0-.58.53-1.07,1.35-1.64a17.25,17.25,0,0,1,5.9-2.87,5.37,5.37,0,0,1,5.53,5.86v7.91c0,1.88.7,2.46,1.44,2.46a3.31,3.31,0,0,0,1.47-.45l.41,1.14Zm-3-10.37c-.9.45-2.87,1.32-3.81,1.72-1.56.7-2.5,1.48-2.5,3a3,3,0,0,0,2.95,3.15,5.45,5.45,0,0,0,3.36-1.47Z" transform="translate(-225.4 -387.75)"/><path class="cls-5" d="M276.87,437.84c-.74-2.38-1.8-4-4.3-4a2.48,2.48,0,0,0-2.54,2.66c0,1.77,1.19,2.59,3.48,3.65,3.53,1.68,5.29,2.91,5.29,5.62,0,3.77-3.44,5.69-6.68,5.69a10.62,10.62,0,0,1-4.88-1.15c-.2-1.18-.57-3.44-.74-4.79l1.19-.21c.74,2.63,2.17,4.76,5,4.76a2.74,2.74,0,0,0,2.87-2.79c0-1.84-1.1-2.78-3.28-3.85-2.87-1.39-5.2-2.7-5.2-5.66s2.54-5.28,6.39-5.28a21.5,21.5,0,0,1,3.94.53c.12,1,.41,3.57.61,4.55Z" transform="translate(-225.4 -387.75)"/><path class="cls-5" d="M314.33,451V449.8c3.36-.32,3.48-.57,3.44-5l0-16.72c-3.36,7.5-8.77,19.22-10.2,22.83h-1.07c-1.39-3.73-6-15-9.14-22.42-.7,14.35-.74,17.59-.74,18.36,0,2.3,1.07,2.63,3.86,2.91V451H290.8V449.8c2.38-.24,3.36-.73,3.69-2.95.25-1.8.29-3.28,1.35-18.24.17-2.13-.24-2.82-3.85-3.15v-1.15h7.13l9.06,20.78,9.71-20.78h7.18v1.15c-3.53.41-4,.78-3.9,3.65l.17,15.73c.16,4.39.28,4.59,3.89,5V451Z" transform="translate(-225.4 -387.75)"/><path class="cls-5" d="M342,447.47c-2.62,3.28-5.49,4-6.8,4-5,0-8-4.1-8-8.81a10.51,10.51,0,0,1,2.67-7.17,8.38,8.38,0,0,1,6.1-3,6.39,6.39,0,0,1,6.27,6.35c0,.82-.16,1.19-.82,1.35-.82.17-6.06.54-10.94.7-.12,5.49,3.24,7.75,6.15,7.75a6.9,6.9,0,0,0,4.75-2.1ZM334.94,434c-1.89,0-3.73,1.77-4.3,5.09,2.29,0,4.59,0,7-.13.74,0,1-.2,1-.82A3.82,3.82,0,0,0,334.94,434Z" transform="translate(-225.4 -387.75)"/><path class="cls-5" d="M358,451.44a3,3,0,0,1-1.93-.78,3.87,3.87,0,0,1-1-1.84c-1.64,1.11-3.65,2.62-4.92,2.62a5,5,0,0,1-5-5c0-2,1.11-3.32,3.36-4.1,2.5-.86,5.58-1.92,6.48-2.66v-.82c0-2.91-1.48-4.59-3.61-4.59a2.37,2.37,0,0,0-1.92.94,8.93,8.93,0,0,0-1.11,2.67,1.15,1.15,0,0,1-1.19.94,2,2,0,0,1-1.8-1.8c0-.58.53-1.07,1.35-1.64a17.25,17.25,0,0,1,5.9-2.87,5.37,5.37,0,0,1,5.53,5.86v7.91c0,1.88.7,2.46,1.44,2.46a3.31,3.31,0,0,0,1.47-.45l.41,1.14Zm-3-10.37c-.9.45-2.87,1.32-3.81,1.72-1.56.7-2.5,1.48-2.5,3a3,3,0,0,0,3,3.15,5.45,5.45,0,0,0,3.36-1.47Z" transform="translate(-225.4 -387.75)"/><path class="cls-5" d="M362.6,451V449.8c2.62-.24,2.95-.45,2.95-3.15V427c0-2.5-.21-2.75-2.83-3.08v-1.06a29.45,29.45,0,0,0,6.07-1.4v25.17c0,2.7.24,2.91,2.91,3.15V451Z" transform="translate(-225.4 -387.75)"/></svg>